<svg width="20" height="20" viewBox="0 0 20 20" fill="none" xmlns="http://www.w3.org/2000/svg">
<g id="Group">
<path id="main" d="M11.91 8.09001C12.4165 8.59657 12.7011 9.28362 12.7011 10C12.7011 10.7164 12.4165 11.4034 11.91 11.91C11.4034 12.4166 10.7164 12.7012 9.99998 12.7012C9.28359 12.7012 8.59654 12.4166 8.08998 11.91C7.58341 11.4034 7.29883 10.7164 7.29883 10C7.29883 9.64529 7.3687 9.29404 7.50444 8.96632C7.64019 8.6386 7.83915 8.34083 8.08998 8.09001C8.3408 7.83918 8.63857 7.64022 8.96629 7.50447C9.29401 7.36873 9.64526 7.29886 9.99998 7.29886C10.7164 7.29886 11.4034 7.58344 11.91 8.09001" stroke="white" stroke-width="1.5" stroke-linecap="round" stroke-linejoin="round"/>
<path id="Vector" d="M3.24999 10C3.24999 10.297 3.27699 10.594 3.31299 10.882L1.72499 12.124C1.55467 12.2574 1.43823 12.4478 1.39708 12.6602C1.35592 12.8725 1.39282 13.0926 1.50099 13.28L2.91299 15.723C3.02113 15.9101 3.1931 16.0519 3.39736 16.1224C3.60161 16.193 3.82445 16.1875 4.02499 16.107L5.44699 15.536C5.58542 15.4824 5.73483 15.4634 5.88226 15.4807C6.02969 15.4979 6.17068 15.5509 6.29299 15.635C6.51299 15.781 6.74099 15.915 6.97699 16.035C7.24699 16.172 7.44299 16.417 7.48599 16.717L7.70299 18.23C7.76599 18.672 8.14499 19 8.59099 19H11.408C11.6239 19 11.8326 18.9221 11.9957 18.7807C12.1588 18.6393 12.2654 18.4437 12.296 18.23L12.513 16.718C12.5366 16.5712 12.5956 16.4323 12.6848 16.3134C12.774 16.1944 12.8907 16.0989 13.025 16.035C13.26 15.917 13.487 15.784 13.706 15.639C13.8286 15.554 13.9702 15.5002 14.1183 15.4825C14.2665 15.4647 14.4167 15.4834 14.556 15.537L15.975 16.107C16.1756 16.1873 16.3983 16.1927 16.6025 16.1221C16.8067 16.0516 16.9787 15.9099 17.087 15.723L18.499 13.28C18.6072 13.0926 18.6441 12.8725 18.6029 12.6602C18.5618 12.4478 18.4453 12.2574 18.275 12.124L16.687 10.882C16.723 10.594 16.75 10.297 16.75 10C16.75 9.703 16.723 9.406 16.687 9.118L18.275 7.876C18.4453 7.74261 18.5618 7.55222 18.6029 7.33984C18.6441 7.12745 18.6072 6.90735 18.499 6.72L17.087 4.277C16.9789 4.08991 16.8069 3.94809 16.6026 3.87755C16.3984 3.80702 16.1755 3.8125 15.975 3.893L14.556 4.463C14.4167 4.51634 14.2665 4.53492 14.1184 4.51715C13.9703 4.49938 13.8287 4.44578 13.706 4.361C13.4871 4.21555 13.2597 4.08332 13.025 3.965C12.8907 3.90113 12.774 3.8056 12.6848 3.68663C12.5956 3.56766 12.5366 3.4288 12.513 3.282L12.297 1.77C12.2664 1.55627 12.1598 1.36074 11.9967 1.2193C11.8336 1.07785 11.6249 0.999991 11.409 1H8.59199C8.37609 0.999991 8.16743 1.07785 8.00431 1.2193C7.84119 1.36074 7.73456 1.55627 7.70399 1.77L7.48599 3.284C7.46234 3.43026 7.40371 3.56865 7.31509 3.68739C7.22647 3.80613 7.11048 3.90171 6.97699 3.966C6.74099 4.086 6.51299 4.221 6.29299 4.366C6.1703 4.44971 6.02912 4.50236 5.88158 4.51943C5.73404 4.5365 5.58456 4.51748 5.44599 4.464L4.02499 3.893C3.82445 3.8125 3.60161 3.80702 3.39736 3.87755C3.1931 3.94809 3.02113 4.08991 2.91299 4.277L1.50099 6.72C1.39282 6.90735 1.35592 7.12745 1.39708 7.33984C1.43823 7.55222 1.55467 7.74261 1.72499 7.876L3.31299 9.118C3.27379 9.41042 3.25274 9.70498 3.24999 10V10Z" stroke="white" stroke-width="1.5" stroke-linecap="round" stroke-linejoin="round"/>
</g>
</svg>
