<svg width="90" height="32" viewBox="0 0 90 32" fill="none" xmlns="http://www.w3.org/2000/svg">
<path d="M7.49341 27.2286C6.14103 27.2286 4.95056 26.9714 3.92198 26.4571C2.91246 25.9429 2.13151 25.219 1.57913 24.2857C1.02675 23.3524 0.750556 22.2762 0.750556 21.0571V19.0286C0.750556 18.8381 0.845794 18.7429 1.03627 18.7429H3.2077C3.39818 18.7429 3.49341 18.8381 3.49341 19.0286V21.0571C3.49341 22.2 3.85532 23.1238 4.57913 23.8286C5.30294 24.5143 6.27437 24.8571 7.49341 24.8571C8.67437 24.8571 9.63627 24.5143 10.3791 23.8286C11.122 23.1238 11.4934 22.2 11.4934 21.0571V7.28571C11.4934 7.09524 11.5887 7 11.7791 7H13.9506C14.141 7 14.2363 7.09524 14.2363 7.28571V21.0571C14.2363 22.2762 13.9506 23.3524 13.3791 24.2857C12.8267 25.219 12.0363 25.9429 11.0077 26.4571C9.97913 26.9714 8.8077 27.2286 7.49341 27.2286ZM31.2963 21.7714C31.2963 23.2571 30.8201 24.4857 29.8677 25.4571C28.9344 26.4095 27.6296 26.981 25.9535 27.1714C25.8773 27.1714 25.8392 27.2095 25.8392 27.2857L25.8677 29.2857C25.8677 29.4762 25.7725 29.5714 25.582 29.5714H23.6963C23.5058 29.5714 23.4106 29.4762 23.4106 29.2857L23.4392 27.2571C23.4392 27.181 23.4011 27.1429 23.3249 27.1429C21.6296 26.9143 20.3058 26.3238 19.3535 25.3714C18.4011 24.4 17.9249 23.1619 17.9249 21.6571V20.8286C17.9249 20.6381 18.0201 20.5429 18.2106 20.5429H20.182C20.3725 20.5429 20.4677 20.6381 20.4677 20.8286V21.5143C20.4677 22.4857 20.8677 23.2857 21.6677 23.9143C22.4677 24.5429 23.5535 24.8571 24.9249 24.8571C26.163 24.8571 27.0963 24.581 27.7249 24.0286C28.3725 23.4762 28.6963 22.7524 28.6963 21.8571C28.6963 21.2667 28.5344 20.7619 28.2106 20.3429C27.8868 19.9238 27.4106 19.5429 26.782 19.2C26.1535 18.8381 25.2392 18.4095 24.0392 17.9143C22.7058 17.381 21.6582 16.8952 20.8963 16.4571C20.1344 16.019 19.4963 15.4476 18.982 14.7429C18.4868 14.019 18.2392 13.1143 18.2392 12.0286C18.2392 10.581 18.6868 9.40952 19.582 8.51428C20.4773 7.6 21.6963 7.03809 23.2392 6.82857C23.3154 6.82857 23.3535 6.79047 23.3535 6.71428L23.3249 4.51428C23.3249 4.32381 23.4201 4.22857 23.6106 4.22857H25.4677C25.6582 4.22857 25.7535 4.32381 25.7535 4.51428L25.7249 6.74285C25.7249 6.81905 25.763 6.86666 25.8392 6.88571C27.4773 7.11428 28.763 7.72381 29.6963 8.71428C30.6487 9.70476 31.1249 10.9524 31.1249 12.4571V13.0286C31.1249 13.219 31.0296 13.3143 30.8392 13.3143H28.8392C28.6487 13.3143 28.5535 13.219 28.5535 13.0286V12.6C28.5535 11.6095 28.182 10.7905 27.4392 10.1429C26.6963 9.47619 25.6582 9.14286 24.3249 9.14286C23.2011 9.14286 22.3344 9.39047 21.7249 9.88571C21.1154 10.3619 20.8106 11.0571 20.8106 11.9714C20.8106 12.6 20.963 13.1143 21.2677 13.5143C21.5916 13.9143 22.0487 14.2762 22.6392 14.6C23.2487 14.9048 24.1725 15.3048 25.4106 15.8C26.7058 16.3333 27.7439 16.8286 28.5249 17.2857C29.3249 17.7238 29.982 18.3143 30.4963 19.0571C31.0297 19.781 31.2963 20.6857 31.2963 21.7714ZM39.1099 27C38.9385 27 38.8337 26.9238 38.7956 26.7714L33.4242 7.31428L33.3956 7.22857C33.3956 7.07619 33.4909 7 33.6814 7H35.9956C36.1671 7 36.2718 7.08571 36.3099 7.25714L40.0528 21.4857C40.0718 21.5238 40.0909 21.5429 40.1099 21.5429C40.148 21.5429 40.1766 21.5238 40.1956 21.4857L43.7385 7.25714C43.7766 7.08571 43.8814 7 44.0528 7H46.3099C46.4814 7 46.5861 7.08571 46.6242 7.25714L50.3671 21.5143C50.3861 21.5524 50.4052 21.5714 50.4242 21.5714C50.4433 21.5714 50.4623 21.5524 50.4814 21.5143L54.2528 7.25714C54.2909 7.08571 54.3956 7 54.5671 7H56.7385C56.8337 7 56.9004 7.02857 56.9385 7.08571C56.9956 7.14286 57.0147 7.21905 56.9956 7.31428L51.8242 26.7429C51.7861 26.9143 51.6814 27 51.5099 27H49.3099C49.1385 27 49.0337 26.9143 48.9956 26.7429L45.2528 12C45.2337 11.9429 45.2147 11.9143 45.1956 11.9143C45.1766 11.9143 45.1575 11.9429 45.1385 12L41.5099 26.7429C41.4909 26.9143 41.3861 27 41.1956 27H39.1099ZM69.5164 27C69.345 27 69.2307 26.9238 69.1736 26.7714L68.145 23.4286C68.1259 23.3714 68.0878 23.3429 68.0307 23.3429H60.0021C59.945 23.3429 59.9069 23.3714 59.8878 23.4286L58.8593 26.7714C58.8021 26.9238 58.6878 27 58.5164 27H56.2021C55.9926 27 55.9164 26.8952 55.9736 26.6857L62.2307 7.22857C62.2878 7.07619 62.4021 7 62.5736 7H65.4307C65.6021 7 65.7164 7.07619 65.7736 7.22857L72.0878 26.6857L72.1164 26.8C72.1164 26.9333 72.0307 27 71.8593 27H69.5164ZM60.6021 21.0286C60.5831 21.0667 60.5831 21.1048 60.6021 21.1429C60.6402 21.1619 60.6783 21.1714 60.7164 21.1714H67.2878C67.3259 21.1714 67.3545 21.1619 67.3736 21.1429C67.4116 21.1048 67.4212 21.0667 67.4021 21.0286L64.0878 10.4286C64.0688 10.3905 64.0402 10.3714 64.0021 10.3714C63.964 10.3714 63.9355 10.3905 63.9164 10.4286L60.6021 21.0286ZM83.1988 6.97143C84.3607 6.97143 85.3797 7.21905 86.2559 7.71428C87.1512 8.19047 87.8369 8.86666 88.3131 9.74286C88.8083 10.619 89.0559 11.6286 89.0559 12.7714C89.0559 13.9143 88.8083 14.9143 88.3131 15.7714C87.8178 16.6286 87.1131 17.2952 86.1988 17.7714C85.3035 18.2476 84.2654 18.4857 83.0845 18.4857H78.0559C77.9797 18.4857 77.9416 18.5238 77.9416 18.6V26.7143C77.9416 26.9048 77.8464 27 77.6559 27H75.4845C75.294 27 75.1988 26.9048 75.1988 26.7143V7.25714C75.1988 7.06666 75.294 6.97143 75.4845 6.97143H83.1988ZM82.8273 16.2571C83.875 16.2571 84.7131 15.9429 85.3416 15.3143C85.9893 14.6857 86.3131 13.8571 86.3131 12.8286C86.3131 11.781 85.9893 10.9429 85.3416 10.3143C84.7131 9.66666 83.875 9.34286 82.8273 9.34286H78.0559C77.9797 9.34286 77.9416 9.38095 77.9416 9.45714V16.1429C77.9416 16.219 77.9797 16.2571 78.0559 16.2571H82.8273Z" fill="url(#paint0_linear_4110_389)"/>
<defs>
<linearGradient id="paint0_linear_4110_389" x1="2.45454" y1="32" x2="70.122" y2="-24.0137" gradientUnits="userSpaceOnUse">
<stop stop-color="#85FFC4"/>
<stop offset="0.411458" stop-color="#5CC6FF"/>
<stop offset="0.854167" stop-color="#BC85FF"/>
</linearGradient>
</defs>
</svg>
