<svg width="56" height="40" viewBox="0 0 56 40" fill="none" xmlns="http://www.w3.org/2000/svg">
<rect width="56" height="40" rx="20"/>
<path d="M34.5027 20.0001C34.5027 20.2764 34.2788 20.5003 34.0025 20.5003C33.7263 20.5003 33.5023 20.2764 33.5023 20.0001C33.5023 19.7239 33.7263 19.4999 34.0025 19.4999C34.2788 19.4999 34.5027 19.7239 34.5027 20.0001" stroke="white" stroke-width="1.5" stroke-linecap="round" stroke-linejoin="round"/>
<path d="M28.5002 20.0001C28.5002 20.2764 28.2762 20.5003 28 20.5003C27.7237 20.5003 27.4998 20.2764 27.4998 20.0001C27.4998 19.7239 27.7237 19.4999 28 19.4999C28.2762 19.4999 28.5002 19.7239 28.5002 20.0001" stroke="white" stroke-width="1.5" stroke-linecap="round" stroke-linejoin="round"/>
<path d="M22.4977 20.0001C22.4977 20.2764 22.2738 20.5003 21.9975 20.5003C21.7213 20.5003 21.4973 20.2764 21.4973 20.0001C21.4973 19.7239 21.7213 19.4999 21.9975 19.4999C22.2738 19.4999 22.4977 19.7239 22.4977 20.0001" stroke="white" stroke-width="1.5" stroke-linecap="round" stroke-linejoin="round"/>
</svg>
